HIERARCHY
ROOT Hips
{
	OFFSET 0.000000 0.000000 0.000000
	CHANNELS 6 Xposition Yposition Zposition Zrotation Yrotation Xrotation 
	JOINT LHipJoint
	{
		OFFSET 0.000000 0.000000 0.000000
		CHANNELS 3 Zrotation Yrotation Xrotation
		JOINT LeftUpLeg
		{
			OFFSET 1.363060 -1.794630 0.839290
			CHANNELS 3 Zrotation Yrotation Xrotation
			JOINT LeftLeg
			{
				OFFSET 2.448110 -6.726130 0.000000
				CHANNELS 3 Zrotation Yrotation Xrotation
				JOINT LeftFoot
				{
					OFFSET 2.562200 -7.039590 0.000000
					CHANNELS 3 Zrotation Yrotation Xrotation
					JOINT LeftToeBase
					{
						OFFSET 0.157640 -0.433110 2.322550
						CHANNELS 3 Zrotation Yrotation Xrotation
						End Site
						{
							OFFSET 0.000000 0.000000 0.000000
						}
					}
				}
			}
		}
	}
	JOINT RHipJoint
	{
		OFFSET 0.000000 0.000000 0.000000
		CHANNELS 3 Zrotation Yrotation Xrotation
		JOINT RightUpLeg
		{
			OFFSET -1.305520 -1.794630 0.839290
			CHANNELS 3 Zrotation Yrotation Xrotation
			JOINT RightLeg
			{
				OFFSET -2.542530 -6.985550 0.000000
				CHANNELS 3 Zrotation Yrotation Xrotation
				JOINT RightFoot
				{
					OFFSET -2.568260 -7.056230 0.000000
					CHANNELS 3 Zrotation Yrotation Xrotation
					JOINT RightToeBase
					{
						OFFSET -0.164730 -0.452590 2.363150
						CHANNELS 3 Zrotation Yrotation Xrotation
						End Site
						{
							OFFSET 0.000000 0.000000 0.000000
						}
					}
				}
			}
		}
	}
}
MOTION
Frames: 31
Frame Time: 0.008333
-10.823709 17.152884 -0.582114 128.048644 88.159855 129.319667 -11.105523 5.464128 0.556660 0.991316 11.647506 10.101485 -0.037757 1.992417 24.934336 1.050856 -0.593025 24.065619 -0.811200 0.000000 -76.189800 9.502748 -1.109455 2.852762 7.304163 -1.406018 -21.830767 1.732306 -0.172090 12.651004 -1.705615 -9.001440 0.233849 -2.051300 0.000000 -25.819700
-10.647645 17.161613 -0.544343 134.106413 88.306027 135.186745 -11.149134 5.463284 0.528414 1.657548 12.014051 9.256989 0.078656 2.049170 27.009724 1.197848 -0.578649 25.613555 -0.908100 -0.000001 -72.709600 9.553492 -1.142385 2.739429 7.624862 -1.625491 -21.460483 1.716986 -0.271682 13.734228 -1.696774 -8.893029 -0.124569 -1.948000 -0.000000 -24.080900
-10.474806 17.168813 -0.506357 140.085966 88.438860 140.982848 -11.188770 5.454345 0.486260 2.270477 12.409290 8.314928 0.172395 2.104047 29.176564 1.349703 -0.269344 26.858307 -0.840100 0.000000 -68.474500 9.604226 -1.161106 2.616417 7.938516 -1.886040 -21.039664 1.713053 -0.350733 14.705541 -1.669700 -8.677739 -0.579087 -1.811299 0.000000 -22.350700
-10.305118 17.174434 -0.468406 145.756416 88.552054 146.479793 -11.229481 5.437346 0.431880 2.815590 12.820290 7.282172 0.245774 2.161589 31.405705 1.501388 0.386872 27.730585 -0.565200 -0.000001 -63.743600 9.647175 -1.169505 2.486624 8.238728 -2.181954 -20.566066 1.719577 -0.408902 15.553376 -1.628381 -8.375507 -1.116518 -1.650800 -0.000000 -20.699700
-10.138346 17.178665 -0.430784 150.938453 88.638871 151.500723 -11.274676 5.410812 0.367779 3.281037 13.232402 6.168398 0.303927 2.224959 33.662584 1.649561 1.412641 28.183195 -0.066600 -0.000000 -58.838000 9.676588 -1.172833 2.353211 8.520534 -2.509913 -20.040381 1.735317 -0.447220 16.269650 -1.577949 -8.012609 -1.717755 -1.477600 -0.000000 -19.209800
-9.974205 17.181793 -0.393771 155.481176 88.692949 155.894629 -11.324450 5.371952 0.296944 3.655378 13.627331 4.989980 0.353153 2.295178 35.904972 1.793022 2.798211 28.197453 0.641700 0.000001 -54.134400 9.690639 -1.176553 2.218028 8.779201 -2.871904 -19.464459 1.758703 -0.468264 16.850674 -1.523277 -7.615700 -2.357054 -1.302400 -0.000000 -17.994299
-9.812274 17.184326 -0.357754 159.471887 88.717508 159.754439 -11.378368 5.320594 0.222551 3.941838 14.000437 3.746438 0.397214 2.372954 38.107886 1.929742 4.483495 27.742949 1.504799 0.000000 -49.671700 9.688505 -1.183952 2.087104 9.019022 -3.252811 -18.845218 1.788143 -0.472863 17.291662 -1.471369 -7.222641 -3.017893 -1.134700 -0.000000 -17.033100
-9.652330 17.186749 -0.322841 162.738762 88.708772 162.903207 -11.430819 5.254089 0.147379 4.127414 14.333289 2.468494 0.440328 2.455139 40.217140 2.061729 6.404779 26.859720 2.458100 -0.000000 -45.896200 9.675859 -1.198602 1.958903 9.231004 -3.663902 -18.184948 1.821368 -0.465593 17.598727 -1.423880 -6.847438 -3.668218 -0.980200 -0.000001 -16.470000
-9.494012 17.189605 -0.289347 165.474259 88.679099 165.537448 -11.480687 5.175175 0.073096 4.224188 14.634968 1.154690 0.481509 2.540943 42.212995 2.186475 8.449019 25.536597 3.403200 0.000000 -42.538200 9.653919 -1.220766 1.839000 9.421909 -4.083856 -17.489580 1.856469 -0.446773 17.770618 -1.385593 -6.520253 -4.291589 -0.843800 -0.000000 -16.252300
-9.337059 17.193415 -0.257433 167.735287 88.638329 167.714260 -11.525697 5.085499 0.001153 4.235853 14.908336 -0.181920 0.519121 2.627462 44.062337 2.303281 10.511070 23.809565 4.249400 0.000001 -39.561900 9.625528 -1.250667 1.729788 9.592095 -4.499909 -16.762341 1.891453 -0.418119 17.810614 -1.358130 -6.256152 -4.867059 -0.727900 0.000000 -16.387099
-9.181414 17.198567 -0.226980 169.424152 88.591718 169.332172 -11.560294 4.985655 -0.066847 4.156517 15.150061 -1.519572 0.551095 2.709689 45.727364 2.412295 12.499316 21.752411 4.925800 0.000001 -37.091900 9.597731 -1.288226 1.630352 9.732323 -4.914609 -16.010481 1.924800 -0.383231 17.735627 -1.339314 -6.047226 -5.382903 -0.630200 -0.000000 -16.844700
-9.026882 17.205377 -0.198167 170.760058 88.557537 170.614909 -11.587115 4.878909 -0.130808 4.002563 15.374827 -2.858518 0.572337 2.785658 47.193327 2.510862 14.317870 19.416852 5.370600 -0.000000 -34.894301 9.567948 -1.331965 1.546115 9.852620 -5.291876 -15.232136 1.955172 -0.341134 17.538932 -1.331028 -5.910750 -5.822566 -0.552900 -0.000000 -17.580500
-8.873520 17.213974 -0.170729 171.611934 88.539907 171.427553 -11.600801 4.765971 -0.190665 3.769107 15.583636 -4.181775 0.579642 2.851007 48.439727 2.596610 15.900645 16.880597 5.557300 -0.000000 -32.866500 9.543121 -1.381369 1.475712 9.942985 -5.634652 -14.434621 1.981969 -0.295301 17.241105 -1.328822 -5.824271 -6.183361 -0.492200 0.000000 -18.529000
-8.721354 17.224352 -0.144527 171.988976 88.547807 171.779355 -11.600078 4.647898 -0.246604 3.460639 15.780449 -5.482098 0.569687 2.902743 49.456468 2.667795 17.205921 14.235644 5.492100 0.000000 -30.996401 9.525308 -1.435126 1.419990 10.003652 -5.928564 -13.619553 2.004914 -0.246871 16.849813 -1.330318 -5.777413 -6.461444 -0.446900 -0.000000 -19.632200
-8.570480 17.236323 -0.119416 171.855374 88.585870 171.633302 -11.583210 4.525376 -0.299471 3.080755 15.968751 -6.752923 0.540271 2.938757 50.241634 2.721906 18.210840 11.559128 5.202600 -0.000000 -29.144499 9.517051 -1.492398 1.379019 10.033615 -6.164639 -12.786958 2.023977 -0.197133 16.373117 -1.332773 -5.756751 -6.655538 -0.415600 0.000001 -20.841799
-8.420937 17.249661 -0.095196 171.094362 88.653147 170.870429 -11.547270 4.398183 -0.349411 2.629597 16.146506 -7.987783 0.491349 2.956792 50.797253 2.758182 18.921078 8.935308 4.741399 0.000000 -27.301900 9.522620 -1.552702 1.350493 10.029643 -6.349261 -11.942199 2.039892 -0.148191 15.828123 -1.332175 -5.738481 -6.774056 -0.395400 0.000000 -22.081900
-8.272812 17.263935 -0.071876 169.716783 88.751995 169.500594 -11.494435 4.265214 -0.398871 2.119652 16.316228 -9.182014 0.424114 2.956671 51.129531 2.777034 19.359006 6.444168 4.171900 0.000000 -25.571600 9.539635 -1.615514 1.334706 10.000083 -6.462423 -11.072678 2.052617 -0.099494 15.205658 -1.329471 -5.729583 -6.813969 -0.387100 -0.000001 -23.363400
-8.126055 17.278802 -0.049287 167.447969 88.866814 167.245432 -11.420974 4.124473 -0.446041 1.546042 16.468346 -10.332990 0.342309 2.935939 51.250357 2.779964 19.564160 4.128785 3.551600 -0.000000 -23.820800 9.574077 -1.682702 1.326578 9.937939 -6.540476 -10.194680 2.064143 -0.054458 14.536243 -1.319470 -5.694129 -6.797888 -0.385100 0.000000 -24.573500
-7.980673 17.293764 -0.027552 164.213098 88.991536 164.027204 -11.331927 3.972185 -0.494850 0.925600 16.606103 -11.434018 0.249640 2.894934 51.172054 2.769505 19.579364 2.020506 2.928700 0.000000 -22.087199 9.620510 -1.755888 1.325582 9.853516 -6.567728 -9.289666 2.074439 -0.012376 13.804157 -1.305809 -5.652179 -6.725097 -0.390700 -0.000000 -25.753600
-7.836448 17.308505 -0.006753 159.724799 89.103778 159.557231 -11.231371 3.803473 -0.541968 0.258582 16.716854 -12.485971 0.152322 2.830870 50.906787 2.750988 19.465693 0.144529 2.344400 0.000000 -20.419300 9.676545 -1.839488 1.327841 9.746370 -6.576829 -8.371689 2.085779 0.024564 13.028819 -1.286828 -5.586748 -6.615794 -0.399700 0.000000 -26.825300
-7.693211 17.322679 0.012959 153.735350 89.184355 153.585797 -11.130781 3.612700 -0.587417 -0.446254 16.796924 -13.485562 0.055617 2.742681 50.466247 2.729466 19.277297 -1.500722 1.819800 -0.000000 -18.840199 9.731288 -1.937871 1.331206 9.620620 -6.575176 -7.436465 2.099056 0.056136 12.208027 -1.265276 -5.509111 -6.477521 -0.411600 -0.000000 -27.798300
-7.550651 17.336033 0.031373 145.967276 89.212492 145.835545 -11.047053 3.396872 -0.628945 -1.185676 16.842870 -14.432832 -0.036642 2.630604 49.860413 2.710446 19.066705 -2.932362 1.362100 -0.000000 -17.336500 9.768664 -2.053916 1.332779 9.475899 -6.576524 -6.487233 2.115160 0.082909 11.346906 -1.242812 -5.423985 -6.320547 -0.425200 -0.000000 -28.664600
-7.408550 17.348452 0.048378 136.234260 89.172730 136.120705 -11.000257 3.160097 -0.663271 -1.958786 16.856283 -15.328314 -0.123615 2.498971 49.093782 2.699408 18.882414 -4.165677 0.972100 -0.000000 -15.970300 9.769011 -2.184891 1.329199 9.308615 -6.587880 -5.524959 2.133408 0.107670 10.450983 -1.220711 -5.337454 -6.149753 -0.440300 0.000000 -29.442200
-7.266583 17.359827 0.063784 124.640401 89.059172 124.547783 -11.004093 2.917327 -0.686430 -2.765296 16.845808 -16.177002 -0.209457 2.357835 48.168795 2.700911 18.762450 -5.223476 0.643400 0.000000 -14.763800 9.718064 -2.319263 1.316745 9.113879 -6.611917 -4.552710 2.151383 0.135694 9.531034 -1.198525 -5.249745 -5.967635 -0.456700 0.000000 -30.149100
-7.124536 17.370160 0.077530 111.796568 88.874291 111.731436 -11.054694 2.690540 -0.695335 -3.600479 16.824412 -16.987344 -0.301671 2.220033 47.088211 2.718384 18.732516 -6.132550 0.365800 -0.000001 -13.701100 9.617848 -2.439563 1.292782 8.891116 -6.647415 -3.576930 2.165652 0.172868 8.601568 -1.174422 -5.156541 -5.773739 -0.474200 -0.000000 -30.805400
-6.982259 17.379452 0.089563 98.773980 88.623948 98.746346 -11.129723 2.497957 -0.688889 -4.453195 16.803828 -17.768301 -0.405836 2.094510 45.857995 2.753672 18.804606 -6.910809 0.131300 -0.000000 -12.802000 9.488527 -2.531644 1.257806 8.646307 -6.692233 -2.607738 2.173554 0.222444 7.676940 -1.146554 -5.053622 -5.565168 -0.492700 0.000000 -31.439500
-6.839631 17.387767 0.099879 86.664524 88.316622 86.687300 -11.200667 2.345511 -0.668056 -5.309155 16.790133 -18.527864 -0.522531 1.982236 44.489672 2.806660 18.975504 -7.573819 -0.066900 0.000000 -12.059500 9.357283 -2.591671 1.215433 8.389633 -6.747030 -1.660080 2.174852 0.283361 6.770541 -1.113587 -4.936458 -5.339711 -0.511800 0.000000 -32.076600
-6.696655 17.395133 0.108515 76.125104 87.964160 76.212735 -11.246485 2.228044 -0.635238 -6.157281 16.786143 -19.271878 -0.648148 1.878144 42.998400 2.875134 19.228463 -8.132498 -0.233100 0.000000 -11.447800 9.245264 -2.625199 1.170502 8.130046 -6.814961 -0.750435 2.171185 0.351272 5.895958 -1.074879 -4.800503 -5.097023 -0.530600 0.000000 -32.737601
-6.553421 17.401572 0.115535 67.304964 87.580923 67.472114 -11.258196 2.135941 -0.593255 -6.992318 16.794931 -20.003970 -0.777696 1.775618 41.400620 2.955035 19.537174 -8.590660 -0.368300 0.000000 -10.949000 9.162795 -2.641846 1.127366 7.871856 -6.899844 0.106759 2.164811 0.420934 5.066124 -1.030063 -4.640477 -4.837840 -0.548200 0.000001 -33.443600
-6.410013 17.407031 0.120971 60.041871 87.180135 60.302109 -11.236320 2.060181 -0.544984 -7.813182 16.822389 -20.727283 -0.907403 1.669545 39.713433 3.040892 19.868474 -8.952154 -0.472300 -0.000000 -10.519300 9.110975 -2.650864 1.089042 7.617280 -7.003688 0.901236 2.157870 0.487750 4.294196 -0.978938 -4.450583 -4.565394 -0.562900 -0.000000 -34.198699
-6.266609 17.411449 0.124822 54.068153 86.771982 54.432437 -11.186203 1.994712 -0.493673 -8.622122 16.877684 -21.443178 -1.035154 1.557340 37.953981 3.126500 20.187971 -9.216362 -0.543100 -0.000000 -10.136500 9.086308 -2.659059 1.056516 7.365258 -7.128221 1.628651 2.151818 0.548299 3.591403 -0.921415 -4.225642 -4.283291 -0.573400 -0.000000 -35.011099
